<?xml version="1.0" encoding="UTF-8"?>
<!DOCTYPE svg PUBLIC "-//W3C//DTD SVG 1.1//EN" "http://www.w3.org/Graphics/SVG/1.1/DTD/svg11.dtd">
<svg version="1.1" xmlns="http://www.w3.org/2000/svg" xmlns:xlink="http://www.w3.org/1999/xlink" x="0" y="0"
    width="175" height="50" viewBox="0, 0, 1400, 400">
    <defs>
    <linearGradient id="Gradient_1" gradientUnits="userSpaceOnUse" x1="37.163" y1="178.231" x2="93.736"
        y2="178.231" gradientTransform="matrix(0.636, -0.772, 0.772, 0.636, 0, 0)">
        <stop offset="0" stop-color="#3C4D03" />
        <stop offset="0.498" stop-color="#6C8B05" />
        <stop offset="1" stop-color="#3C4D03" />
    </linearGradient>
    </defs>
    <g id="Layer_1">
    <g>
        <path d="M135,195 L135,370" fill-opacity="0" stroke="#000000" stroke-width="5" />
        <path d="M135,195 C135,195 235,75 235,75 C235,75 35,75 35,75 C35,75 135,195 135,195 z" fill-opacity="0"
        stroke="#000000" stroke-width="5" />
        <path d="M135,370 C135,370 85,395 85,395 C85,395 185,395 185,395 C185,395 135,370 135,370 z"
        fill-opacity="0" stroke="#000000" stroke-width="5" />
        <path d="M130,125 L230,5" fill-opacity="0" stroke="#000000" stroke-width="5" />
        <g id="DB">
        <path
            d="M162.08,48.845 C152.147,60.895 140.645,67.834 136.169,64.145 L178.205,98.796 C182.542,102.372 193.972,95.662 203.86,83.807 L204.115,83.497 C214.048,71.447 218.665,58.832 214.19,55.143 L172.154,20.491 C176.527,24.096 172.013,36.796 162.08,48.845 z"
            fill="url(#Gradient_1)" />
        <path
            d="M172.154,20.491 C176.527,24.096 172.013,36.796 162.08,48.845 C152.147,60.895 140.541,67.749 136.169,64.145 C131.797,60.541 136.311,47.84 146.244,35.791 C156.176,23.741 167.679,16.802 172.154,20.491"
            fill="#E8E8E8" />
        <path
            d="M167.3,25.047 C170.089,27.346 166.14,36.696 158.534,45.922 C150.928,55.149 142.561,60.74 139.772,58.442 C136.983,56.143 140.876,46.862 148.481,37.636 C156.087,28.409 164.546,22.777 167.3,25.047"
            fill="#6C8B05" />
        <path
            d="M154.678,42.744 C150.895,47.15 147.854,52.142 145.674,57.525 C150.614,54.424 154.975,50.486 158.562,45.888 C162.392,41.489 165.425,36.456 167.526,31.016 C162.633,34.199 158.293,38.16 154.678,42.744 z"
            fill="#3C4D03" />
        </g>
        <path d="M135,195 C135,195 260,45 260,45 C260,45 10,45 10,45 C10,45 135,195 135,195 z" fill-opacity="0"
        stroke="#000000" stroke-width="5" />
    </g>
    <g>
        <path
        d="M317.725,245.326 L317.644,164.558 L290.892,164.584 L290.883,155.752 L355.139,155.688 L355.148,164.52 L328.396,164.547 L328.477,245.315 z"
        fill="#000000" />
        <path
        d="M368.413,245.275 L368.323,155.675 L379.075,155.664 L379.115,195.216 L425.579,195.17 L425.539,155.618 L436.291,155.607 L436.381,245.207 L425.629,245.218 L425.588,204.002 L379.124,204.048 L379.165,245.264 z"
        fill="#000000" />
        <path
        d="M455.325,245.188 L455.235,155.588 L510.659,155.533 L510.668,164.365 L465.996,164.409 L466.027,195.641 L506.859,195.601 L506.868,204.305 L466.036,204.345 L466.068,236.345 L510.74,236.301 L510.749,245.133 z"
        fill="#000000" />
        <path
        d="M561.437,245.082 L561.347,155.482 L588.867,155.454 Q612.547,155.431 623.759,167.452 Q634.971,179.472 634.992,200.464 Q635.013,221.072 623.825,233.052 Q612.637,245.031 588.957,245.054 z M572.18,236.111 L588.692,236.095 Q601.748,236.082 609.488,231.786 Q617.227,227.49 620.547,219.487 Q623.867,211.484 623.856,200.476 Q623.845,189.212 620.509,181.151 Q617.173,173.09 609.425,168.746 Q601.676,164.402 588.62,164.415 L572.108,164.431 z"
        fill="#000000" />
        <path
        d="M638.493,245.005 L671.427,155.372 L682.819,155.361 L715.805,244.928 L704.413,244.939 L696.198,221.907 L658.054,221.945 L649.757,244.994 z M661.245,213.238 L692.989,213.206 L677.073,168.934 z"
        fill="#000000" />
        <path
        d="M739.997,244.903 L739.916,164.135 L713.164,164.162 L713.155,155.33 L777.411,155.266 L777.42,164.098 L750.668,164.125 L750.749,244.893 z"
        fill="#000000" />
        <path
        d="M774.941,244.868 L807.875,155.235 L819.267,155.224 L852.253,244.791 L840.861,244.803 L832.646,221.771 L794.502,221.809 L786.205,244.857 z M797.693,213.102 L829.437,213.07 L813.521,168.798 z"
        fill="#000000" />
        <path
        d="M899.485,244.744 L899.395,155.144 L911.939,155.131 L944.258,217.563 L976.195,155.067 L988.867,155.054 L988.957,244.654 L978.205,244.665 L978.135,174.265 L948.24,231.895 L940.176,231.903 L910.167,174.461 L910.237,244.733 z"
        fill="#000000" />
        <path
        d="M1002.269,244.641 L1035.203,155.008 L1046.595,154.997 L1079.581,244.564 L1068.189,244.575 L1059.974,221.543 L1021.83,221.582 L1013.533,244.63 z M1025.021,212.874 L1056.765,212.843 L1040.849,168.57 z"
        fill="#000000" />
        <path
        d="M1092.893,244.551 L1092.803,154.951 L1121.731,154.922 Q1132.227,154.911 1138.887,158.36 Q1145.546,161.81 1148.752,167.823 Q1151.958,173.835 1151.965,181.131 Q1151.974,189.579 1147.437,196.368 Q1142.9,203.156 1133.302,205.982 L1152.925,244.49 L1140.253,244.503 L1122.04,207.529 L1121.272,207.53 L1103.608,207.548 L1103.645,244.54 z M1103.599,199.1 L1121.007,199.082 Q1131.375,199.072 1136.106,194.075 Q1140.837,189.079 1140.83,181.271 Q1140.822,173.335 1136.145,168.667 Q1131.468,164 1120.844,164.01 L1103.564,164.028 z"
        fill="#000000" />
        <path
        d="M1189.789,244.454 L1189.708,163.686 L1162.956,163.712 L1162.947,154.88 L1227.203,154.816 L1227.212,163.648 L1200.46,163.675 L1200.541,244.443 z"
        fill="#000000" />
        <path d="M1240.477,244.403 L1240.387,154.803 L1251.139,154.792 L1251.229,244.392 z" fill="#000000" />
        <path
        d="M1270.173,244.373 L1270.083,154.773 L1280.835,154.762 L1328.651,226.523 L1328.579,154.715 L1339.331,154.704 L1339.421,244.304 L1328.669,244.315 L1280.853,172.555 L1280.925,244.363 z"
        fill="#000000" />
        <path d="M1358.365,244.285 L1358.275,154.685 L1369.027,154.674 L1369.117,244.274 z" fill="#000000" />
    </g>
    </g>
</svg>